<svg width="36" height="36" viewBox="0 0 36 36" fill="none" xmlns="http://www.w3.org/2000/svg">
<g clip-path="url(#clip0_415_33)">
<path d="M14.182 0.167997L7.818 1.469C7.59098 1.52385 7.38815 1.65148 7.24045 1.8324C7.09276 2.01332 7.00831 2.23759 7 2.471V18.328C6.35572 18.1102 5.68011 17.9994 5 18C2.238 18 0 19.741 0 21.889C0 24.036 2.238 25.778 5 25.778C7.713 25.778 9.908 24.095 9.985 22.001H10V6.477L14.182 5.622C14.409 5.56714 14.6119 5.43951 14.7595 5.25859C14.9072 5.07768 14.9917 4.8534 15 4.62V0.834997C15 0.375997 14.632 0.074997 14.182 0.167997ZM35.182 4.168L28.819 5.469C28.368 5.561 28 6.012 28 6.471V22.328C27.3558 22.1097 26.6801 21.9989 26 22C23.238 22 21 23.741 21 25.889C21 28.036 23.238 29.778 26 29.778C28.713 29.778 30.908 28.095 30.985 26.001H31V10.477L35.182 9.622C35.409 9.56714 35.6119 9.43951 35.7595 9.25859C35.9072 9.07768 35.9917 8.8534 36 8.62V4.835C36 4.376 35.632 4.075 35.182 4.168Z" fill="#5DADEC"/>
<path d="M23.182 10.1669L16.819 11.4679C16.368 11.5609 16 12.0119 16 12.4709V28.3279C15.3558 28.1096 14.6801 27.9988 14 27.9999C11.238 27.9999 9 29.7409 9 31.8889C9 34.0369 11.238 35.7779 14 35.7779C16.713 35.7779 18.908 34.0949 18.985 32.0009H19V16.4769L23.182 15.6219C23.409 15.5671 23.6119 15.4395 23.7595 15.2585C23.9072 15.0776 23.9917 14.8533 24 14.6199V10.8349C24 10.3759 23.632 10.0749 23.182 10.1669Z" fill="#5DADEC"/>
</g>
<defs>
<clipPath id="clip0_415_33">
<rect width="36" height="36" fill="white"/>
</clipPath>
</defs>
</svg>
