<svg width="24" height="20" viewBox="0 0 24 20" fill="none" xmlns="http://www.w3.org/2000/svg">
<path d="M10.7573 1.14369C11.6427 0.511284 12.8725 1.14417 12.8725 2.23221V17.7112C12.8725 18.7993 11.6427 19.4322 10.7573 18.7997L5.63526 15.1412H3.14118C1.66362 15.1412 0.46582 13.9434 0.46582 12.4658V7.47764C0.46582 6.00008 1.66362 4.80228 3.14118 4.80228H5.63526L10.7573 1.14369Z" fill="#828282"/>
<path d="M15.9674 15.0438C17.2503 13.7379 18.0416 11.9475 18.0416 9.97227C18.0416 7.98873 17.2436 6.19156 15.9512 4.88428" stroke="#828282" stroke-width="2.00652" stroke-linecap="round" stroke-linejoin="round"/>
<path d="M18.8464 1.93066C20.9045 3.98873 22.1774 6.83192 22.1774 9.97243C22.1774 13.1129 20.9045 15.9561 18.8464 18.0142" stroke="#828282" stroke-width="2.00652" stroke-linecap="round" stroke-linejoin="round"/>
</svg>
